<svg width="100%" viewBox="0 0 41 40" fill="none" xmlns="http://www.w3.org/2000/svg">
<path d="M38.4614 24.3543C36.0571 33.9972 26.2893 39.8657 16.6441 37.4611C7.00295 35.0571 1.13378 25.2897 3.53913 15.6476C5.94238 6.00354 15.7102 0.134592 25.3524 2.53862C34.9969 4.94265 40.8657 14.7111 38.4611 24.3545L38.4613 24.3543H38.4614Z" fill="#F7931A"/>
<path d="M28.938 17.4355C29.2963 15.0401 27.4724 13.7525 24.9784 12.8935L25.7874 9.64871L23.812 9.15654L23.0244 12.3159C22.5051 12.1864 21.9717 12.0644 21.4417 11.9434L22.235 8.76317L20.2608 8.271L19.4513 11.5147C19.0215 11.4169 18.5994 11.3202 18.1899 11.2183L18.1922 11.2081L15.4681 10.5279L14.9426 12.6376C14.9426 12.6376 16.4082 12.9735 16.3773 12.9942C17.1772 13.1938 17.3219 13.7233 17.2979 14.1429L16.3762 17.8395C16.4313 17.8535 16.5028 17.8737 16.5816 17.9054C16.5157 17.8891 16.4456 17.8712 16.3728 17.8538L15.081 23.0321C14.9832 23.2752 14.7351 23.6398 14.1758 23.5014C14.1956 23.53 12.74 23.1431 12.74 23.1431L11.7593 25.4041L14.33 26.0448C14.8082 26.1648 15.2769 26.2902 15.7384 26.4082L14.9209 29.6902L16.8941 30.1824L17.7036 26.9352C18.2426 27.0815 18.7657 27.2165 19.2779 27.3437L18.4711 30.5756L20.4466 31.0678L21.2639 27.7919C24.6325 28.4293 27.1653 28.1723 28.2314 25.1259C29.0905 22.6731 28.1887 21.2583 26.4165 20.3358C27.7073 20.0381 28.6795 19.1893 28.9387 17.4358L28.9381 17.4353L28.938 17.4355ZM24.4246 23.7637C23.8141 26.2165 19.6839 24.8906 18.3449 24.5581L19.4296 20.21C20.7686 20.5443 25.0626 21.2057 24.4247 23.7637H24.4246ZM25.0355 17.4C24.4786 19.631 21.041 18.4975 19.9259 18.2196L20.9094 14.2761C22.0245 14.5541 25.6157 15.0728 25.0357 17.4H25.0355Z" fill="white"/>
</svg>
