<svg width="100%" viewBox="0 0 42 42" fill="none" xmlns="http://www.w3.org/2000/svg">
<g filter="url(#filter0_d_2028_1145)">
<rect width="40" height="40" rx="4" fill="white" shape-rendering="crispEdges"/>
<g clip-path="url(#clip0_2028_1145)">
<g clip-path="url(#clip1_2028_1145)">
<path d="M34.7158 5.03186L22.1152 14.3901L24.4459 8.86867L34.7158 5.03186Z" fill="#E2761B"/>
<path fill-rule="evenodd" clip-rule="evenodd" d="M34.7434 5.01664C34.751 5.03058 34.7472 5.04797 34.7344 5.05744L22.1339 14.4156C22.1223 14.4242 22.1065 14.424 22.0952 14.4151C22.0839 14.4062 22.0799 14.3909 22.0855 14.3777L24.4161 8.85628C24.4196 8.84821 24.4261 8.8419 24.4343 8.83883L34.7043 5.00202C34.7191 4.99647 34.7358 5.0027 34.7434 5.01664ZM24.4695 8.89371L22.1896 14.2948L34.5158 5.14046L24.4695 8.89371Z" fill="#E2761B"/>
<path d="M5.62695 5.03186L18.1262 14.4786L15.9096 8.86867L5.62695 5.03186Z" fill="#E4761B"/>
<path fill-rule="evenodd" clip-rule="evenodd" d="M5.59964 5.01653C5.60725 5.00266 5.62388 4.99649 5.6387 5.00201L15.9214 8.83882C15.9298 8.84198 15.9365 8.84857 15.9399 8.85696L18.1564 14.4669C18.1617 14.4802 18.1575 14.4953 18.1461 14.504C18.1347 14.5126 18.119 14.5126 18.1076 14.504L5.60835 5.05728C5.59574 5.04774 5.59203 5.03039 5.59964 5.01653ZM5.82078 5.13796L18.0555 14.3848L15.8858 8.89356L5.82078 5.13796Z" fill="#E4761B"/>
<path d="M30.1819 26.7242L26.8262 31.8659L34.0066 33.841L36.071 26.8383L30.1819 26.7242Z" fill="#E4761B"/>
<path fill-rule="evenodd" clip-rule="evenodd" d="M30.1549 26.7068C30.1609 26.6976 30.1712 26.6922 30.1822 26.6924L36.0712 26.8064C36.0811 26.8066 36.0904 26.8114 36.0963 26.8195C36.1022 26.8275 36.104 26.8378 36.1011 26.8473L34.0368 33.85C34.0319 33.8667 34.0146 33.8763 33.9978 33.8717L26.8174 31.8966C26.8075 31.8939 26.7996 31.8867 26.796 31.8772C26.7924 31.8677 26.7936 31.857 26.7991 31.8485L30.1549 26.7068ZM30.1986 26.7564L26.8763 31.8468L33.9846 33.802L36.0282 26.8693L30.1986 26.7564Z" fill="#E4761B"/>
<path d="M4.29785 26.8383L6.34942 33.841L13.5299 31.8659L10.1741 26.7242L4.29785 26.8383Z" fill="#E4761B"/>
<path fill-rule="evenodd" clip-rule="evenodd" d="M10.1731 26.6924C10.1841 26.6922 10.1944 26.6976 10.2004 26.7068L13.5562 31.8485C13.5618 31.857 13.5629 31.8677 13.5593 31.8772C13.5557 31.8867 13.5478 31.8939 13.538 31.8966L6.3575 33.8717C6.34073 33.8763 6.32336 33.8666 6.31848 33.85L4.26691 26.8472C4.26412 26.8377 4.26593 26.8274 4.2718 26.8194C4.27767 26.8114 4.28694 26.8066 4.29686 26.8064L10.1731 26.6924ZM4.33977 26.8693L6.37081 33.802L13.479 31.8468L10.1567 26.7564L4.33977 26.8693Z" fill="#E4761B"/>
<path d="M13.1243 18.037L11.123 21.064L18.2526 21.3806L17.9996 13.7191L13.1243 18.037Z" fill="#E4761B"/>
<path fill-rule="evenodd" clip-rule="evenodd" d="M18.0118 13.6899C18.0232 13.6947 18.0307 13.7057 18.0311 13.7181L18.284 21.3796C18.2843 21.3884 18.2809 21.397 18.2746 21.4033C18.2683 21.4095 18.2596 21.4128 18.2508 21.4125L11.1213 21.0958C11.1098 21.0953 11.0995 21.0887 11.0943 21.0784C11.0891 21.0682 11.0898 21.056 11.0961 21.0464L13.0973 18.0194C13.0989 18.0171 13.1007 18.015 13.1028 18.0131L17.9781 13.6953C17.9874 13.6871 18.0005 13.685 18.0118 13.6899ZM13.1482 18.058L11.1803 21.0346L18.2192 21.3473L17.9696 13.7879L13.1482 18.058Z" fill="#E4761B"/>
<path d="M27.2187 18.037L22.2803 13.6306L22.1152 21.3807L29.2326 21.064L27.2187 18.037Z" fill="#E4761B"/>
<path fill-rule="evenodd" clip-rule="evenodd" d="M22.2672 13.6014C22.2786 13.5964 22.2918 13.5986 22.3011 13.6068L27.2395 18.0132C27.2415 18.0151 27.2433 18.0171 27.2448 18.0194L29.2588 21.0464C29.2652 21.056 29.2659 21.0682 29.2607 21.0784C29.2555 21.0887 29.2452 21.0953 29.2337 21.0959L22.1163 21.4125C22.1075 21.4129 22.0989 21.4096 22.0926 21.4035C22.0863 21.3973 22.0828 21.3888 22.083 21.38L22.248 13.6299C22.2483 13.6175 22.2558 13.6064 22.2672 13.6014ZM22.3103 13.7004L22.1474 21.3473L29.1745 21.0347L27.194 18.0581L22.3103 13.7004Z" fill="#E4761B"/>
<path d="M13.5293 31.8659L17.8095 29.7762L14.1116 26.8887L13.5293 31.8659Z" fill="#E4761B"/>
<path fill-rule="evenodd" clip-rule="evenodd" d="M14.1 26.8593C14.1106 26.8548 14.1228 26.8565 14.1318 26.8636L17.8298 29.751C17.8384 29.7578 17.843 29.7685 17.8418 29.7795C17.8407 29.7904 17.834 29.8 17.8241 29.8048L13.5439 31.8946C13.5334 31.8997 13.521 31.8987 13.5115 31.8919C13.502 31.8852 13.4969 31.8738 13.4983 31.8622L14.0806 26.885C14.0819 26.8735 14.0893 26.8637 14.1 26.8593ZM14.1373 26.9487L13.5683 31.8117L17.7504 29.7699L14.1373 26.9487Z" fill="#E4761B"/>
<path d="M22.5332 29.7762L26.8262 31.8659L26.2311 26.8887L22.5332 29.7762Z" fill="#E4761B"/>
<path fill-rule="evenodd" clip-rule="evenodd" d="M26.243 26.8593C26.2536 26.8637 26.261 26.8735 26.2624 26.8849L26.8575 31.8622C26.8588 31.8737 26.8538 31.8851 26.8443 31.8919C26.8348 31.8987 26.8224 31.8997 26.8119 31.8946L22.5189 29.8048C22.509 29.8 22.5023 29.7904 22.5012 29.7795C22.5 29.7686 22.5046 29.7578 22.5132 29.751L26.2111 26.8636C26.2202 26.8565 26.2324 26.8548 26.243 26.8593ZM22.5927 29.7698L26.7873 31.8117L26.2058 26.9485L22.5927 29.7698Z" fill="#E4761B"/>
<path d="M26.8262 31.8659L22.5332 29.7761L22.8753 32.575L22.8371 33.7525L26.8262 31.8659Z" fill="#D7C1B3"/>
<path fill-rule="evenodd" clip-rule="evenodd" d="M22.5143 29.7502C22.5238 29.7434 22.5363 29.7424 22.5468 29.7475L26.8398 31.8373C26.8508 31.8426 26.8578 31.8538 26.8577 31.8661C26.8576 31.8783 26.8505 31.8895 26.8394 31.8947L22.8504 33.7813C22.8403 33.786 22.8285 33.7852 22.8193 33.7791C22.81 33.773 22.8045 33.7625 22.8049 33.7514L22.8431 32.5765L22.5012 29.78C22.4998 29.7684 22.5048 29.757 22.5143 29.7502ZM22.5716 29.8304L22.9066 32.5712C22.9068 32.5728 22.9069 32.5744 22.9068 32.5761L22.8703 33.7014L26.7522 31.8655L22.5716 29.8304Z" fill="#D7C1B3"/>
<path d="M13.5293 31.8659L17.5184 33.7525L17.4929 32.575L17.8095 29.7761L13.5293 31.8659Z" fill="#D7C1B3"/>
<path fill-rule="evenodd" clip-rule="evenodd" d="M17.8285 29.7501C17.838 29.7568 17.8431 29.7681 17.8418 29.7797L17.5254 32.5765L17.5508 33.7518C17.5511 33.7628 17.5456 33.7732 17.5363 33.7792C17.5271 33.7852 17.5153 33.786 17.5054 33.7813L13.5163 31.8947C13.5052 31.8895 13.4981 31.8784 13.498 31.8661C13.498 31.8539 13.5049 31.8427 13.5159 31.8373L17.7962 29.7475C17.8066 29.7424 17.819 29.7434 17.8285 29.7501ZM13.6034 31.8655L17.486 33.7016L17.4617 32.5757C17.4616 32.5743 17.4617 32.5729 17.4618 32.5715L17.772 29.8302L13.6034 31.8655Z" fill="#D7C1B3"/>
<path d="M17.5819 25.0404L14.0107 23.9891L16.5306 22.8365L17.5819 25.0404Z" fill="#233447"/>
<path fill-rule="evenodd" clip-rule="evenodd" d="M16.517 22.8076C16.5328 22.8003 16.5515 22.8071 16.559 22.8228L17.6103 25.0267C17.6157 25.038 17.6139 25.0515 17.6057 25.0611C17.5976 25.0706 17.5846 25.0745 17.5725 25.071L14.0014 24.0197C13.9886 24.0159 13.9795 24.0047 13.9786 23.9914C13.9776 23.9781 13.985 23.9657 13.9971 23.9602L16.517 22.8076ZM14.1011 23.9826L17.522 24.9897L16.515 22.8786L14.1011 23.9826Z" fill="#233447"/>
<path d="M22.7607 25.0404L23.812 22.8365L26.3446 23.9891L22.7607 25.0404Z" fill="#233447"/>
<path fill-rule="evenodd" clip-rule="evenodd" d="M23.7839 22.8228C23.7913 22.8072 23.81 22.8004 23.8258 22.8076L26.3584 23.9601C26.3705 23.9656 26.3779 23.9781 26.377 23.9914C26.3761 24.0047 26.367 24.0159 26.3542 24.0197L22.7703 25.071C22.7583 25.0745 22.7452 25.0706 22.7371 25.061C22.7289 25.0515 22.7272 25.038 22.7326 25.0267L23.7839 22.8228ZM23.8279 22.8785L22.8208 24.9898L26.2541 23.9827L23.8279 22.8785Z" fill="#233447"/>
<path d="M13.5296 31.8659L14.1374 26.7242L10.1738 26.8383L13.5296 31.8659Z" fill="#CD6116"/>
<path fill-rule="evenodd" clip-rule="evenodd" d="M14.1606 26.7027C14.1668 26.7096 14.1698 26.7188 14.1687 26.728L13.5609 31.8696C13.5593 31.8829 13.5496 31.8938 13.5367 31.8969C13.5237 31.9 13.5101 31.8947 13.5027 31.8836L10.147 26.856C10.1405 26.8463 10.1398 26.834 10.1452 26.8237C10.1505 26.8134 10.161 26.8068 10.1725 26.8064L14.1361 26.6924C14.1454 26.6921 14.1543 26.6959 14.1606 26.7027ZM10.2319 26.8685L13.5077 31.7763L14.1011 26.7571L10.2319 26.8685Z" fill="#CD6116"/>
<path d="M26.2178 26.7242L26.8256 31.8659L30.1814 26.8383L26.2178 26.7242Z" fill="#CD6116"/>
<path fill-rule="evenodd" clip-rule="evenodd" d="M26.1949 26.7027C26.2011 26.6959 26.21 26.6921 26.2193 26.6924L30.1829 26.8064C30.1945 26.8068 30.205 26.8134 30.2103 26.8237C30.2156 26.834 30.2149 26.8463 30.2085 26.856L26.8527 31.8836C26.8453 31.8947 26.8318 31.9 26.8188 31.8969C26.8058 31.8938 26.7961 31.8829 26.7946 31.8696L26.1867 26.728C26.1857 26.7188 26.1886 26.7096 26.1949 26.7027ZM26.2543 26.7571L26.8477 31.7763L30.1235 26.8685L26.2543 26.7571Z" fill="#CD6116"/>
<path d="M29.2326 21.064L22.1152 21.3806L22.774 25.0403L23.8253 22.8365L26.3579 23.989L29.2326 21.064Z" fill="#CD6116"/>
<path fill-rule="evenodd" clip-rule="evenodd" d="M29.2614 21.051C29.2667 21.063 29.2642 21.077 29.255 21.0863L26.3802 24.0114C26.3709 24.0209 26.3565 24.0236 26.3443 24.018L23.8402 22.8784L22.8024 25.054C22.7965 25.0665 22.7831 25.0737 22.7694 25.0719C22.7557 25.07 22.7448 25.0596 22.7423 25.0459L22.0835 21.3863C22.0819 21.3772 22.0842 21.3679 22.09 21.3607C22.0957 21.3536 22.1043 21.3492 22.1134 21.3488L29.2308 21.0321C29.2439 21.0316 29.256 21.039 29.2614 21.051ZM22.1527 21.4108L22.7875 24.9373L23.7962 22.8227C23.8037 22.8071 23.8223 22.8003 23.8381 22.8075L26.3504 23.9508L29.1528 21.0994L22.1527 21.4108Z" fill="#CD6116"/>
<path d="M14.0105 23.989L16.5431 22.8365L17.5817 25.0403L18.2526 21.3806L11.123 21.064L14.0105 23.989Z" fill="#CD6116"/>
<path fill-rule="evenodd" clip-rule="evenodd" d="M11.0936 21.051C11.0989 21.039 11.111 21.0316 11.1241 21.0321L18.2536 21.3488C18.2628 21.3492 18.2714 21.3536 18.2771 21.3608C18.2828 21.368 18.2852 21.3773 18.2835 21.3864L17.6126 25.046C17.6101 25.0597 17.5991 25.0701 17.5854 25.0719C17.5717 25.0737 17.5584 25.0664 17.5525 25.0539L16.5273 22.8785L14.0234 24.018C14.0112 24.0236 13.9969 24.0209 13.9875 24.0114L11.1 21.0863C11.0908 21.077 11.0882 21.063 11.0936 21.051ZM11.2024 21.0994L14.0172 23.9508L16.5296 22.8075C16.5454 22.8002 16.5641 22.8071 16.5716 22.8229L17.5678 24.937L18.2143 21.4108L11.2024 21.0994Z" fill="#CD6116"/>
<path d="M11.123 21.064L14.1118 26.8886L14.0105 23.989L11.123 21.064Z" fill="#E4751F"/>
<path fill-rule="evenodd" clip-rule="evenodd" d="M11.104 21.0382C11.1167 21.0289 11.1343 21.0304 11.1454 21.0416L14.0328 23.9667C14.0384 23.9723 14.0417 23.9799 14.042 23.9879L14.1433 26.8875C14.1438 26.9024 14.1339 26.9157 14.1195 26.9195C14.105 26.9232 14.0899 26.9164 14.0831 26.9032L11.0943 21.0785C11.0872 21.0645 11.0913 21.0474 11.104 21.0382ZM11.2457 21.2339L14.0746 26.7471L13.9788 24.0026L11.2457 21.2339Z" fill="#E4751F"/>
<path d="M26.3573 23.989L26.2305 26.8886L29.232 21.064L26.3573 23.989Z" fill="#E4751F"/>
<path fill-rule="evenodd" clip-rule="evenodd" d="M29.2513 21.0382C29.264 21.0474 29.2681 21.0646 29.2609 21.0786L26.2594 26.9032C26.2525 26.9165 26.2374 26.9233 26.2229 26.9194C26.2084 26.9156 26.1986 26.9022 26.1992 26.8872L26.326 23.9876C26.3264 23.9798 26.3296 23.9723 26.3351 23.9667L29.2099 21.0416C29.2209 21.0304 29.2385 21.0289 29.2513 21.0382ZM26.3892 24.0026L26.2692 26.745L29.108 21.2362L26.3892 24.0026Z" fill="#E4751F"/>
<path d="M18.2529 21.3806L17.582 25.0403L18.4179 29.3581L18.6078 23.6724L18.2529 21.3806Z" fill="#E4751F"/>
<path fill-rule="evenodd" clip-rule="evenodd" d="M18.253 21.3488C18.2685 21.349 18.2817 21.3604 18.284 21.3757L18.6389 23.6675C18.6392 23.6695 18.6393 23.6715 18.6393 23.6734L18.4494 29.3592C18.4489 29.3754 18.4363 29.3886 18.4201 29.3899C18.4039 29.3912 18.3894 29.3801 18.3863 29.3642L17.5504 25.0464C17.5496 25.0425 17.5496 25.0385 17.5503 25.0346L18.2212 21.3749C18.224 21.3596 18.2375 21.3485 18.253 21.3488ZM17.6141 25.0401L18.3952 29.0748L18.5755 23.6743L18.2499 21.5717L17.6141 25.0401Z" fill="#E4751F"/>
<path d="M22.1149 21.3806L21.7734 23.6596L21.9251 29.3581L22.7737 25.0403L22.1149 21.3806Z" fill="#E4751F"/>
<path fill-rule="evenodd" clip-rule="evenodd" d="M22.1141 21.3488C22.1297 21.3485 22.1432 21.3596 22.1459 21.375L22.8047 25.0347C22.8054 25.0386 22.8054 25.0426 22.8046 25.0464L21.956 29.3643C21.9528 29.3802 21.9382 29.3912 21.922 29.3899C21.9059 29.3885 21.8933 29.3752 21.8929 29.359L21.7412 23.6605C21.7412 23.6586 21.7413 23.6568 21.7416 23.6549L22.0831 21.3759C22.0854 21.3605 22.0985 21.349 22.1141 21.3488ZM22.1174 21.5764L21.805 23.6616L21.9489 29.0699L22.741 25.04L22.1174 21.5764Z" fill="#E4751F"/>
<path d="M22.7735 25.0404L21.9248 29.3582L22.5326 29.7762L26.2305 26.8887L26.3573 23.9891L22.7735 25.0404Z" fill="#F6851B"/>
<path fill-rule="evenodd" clip-rule="evenodd" d="M26.3776 23.9641C26.3857 23.9704 26.3902 23.9803 26.3898 23.9905L26.263 26.8901C26.2626 26.8994 26.2581 26.9081 26.2508 26.9138L22.5528 29.8013C22.5419 29.8099 22.5266 29.8103 22.5152 29.8025L21.9074 29.3845C21.8969 29.3773 21.8917 29.3646 21.8942 29.3521L22.7428 25.0343C22.7451 25.0226 22.7537 25.0132 22.7651 25.0098L26.349 23.9586C26.3588 23.9557 26.3695 23.9577 26.3776 23.9641ZM22.8016 25.0655L21.9607 29.3439L22.532 29.7367L26.2 26.8727L26.3242 24.0322L22.8016 25.0655Z" fill="#F6851B"/>
<path d="M14.0107 23.9891L14.112 26.8887L17.81 29.7762L18.4178 29.3582L17.5819 25.0404L14.0107 23.9891Z" fill="#F6851B"/>
<path fill-rule="evenodd" clip-rule="evenodd" d="M13.9908 23.964C13.9989 23.9577 14.0095 23.9557 14.0194 23.9586L17.5905 25.0098C17.6019 25.0132 17.6105 25.0227 17.6128 25.0343L18.4487 29.3522C18.4511 29.3646 18.4459 29.3773 18.4355 29.3845L17.8276 29.8025C17.8162 29.8103 17.8009 29.8099 17.79 29.8013L14.0921 26.9138C14.0846 26.908 14.0802 26.8992 14.0798 26.8898L13.9785 23.9902C13.9782 23.98 13.9828 23.9702 13.9908 23.964ZM14.0438 24.0322L14.143 26.8728L17.8108 29.7367L18.3822 29.3438L17.5539 25.0655L14.0438 24.0322Z" fill="#F6851B"/>
<path d="M22.8365 33.7525L22.8748 32.5751L22.5581 32.296H17.7841L17.4929 32.5751L17.5184 33.7525L13.5293 31.866L14.9221 33.0052L17.7458 34.9682H22.5963L25.4328 33.0052L26.8256 31.866L22.8365 33.7525Z" fill="#C0AD9E"/>
<path fill-rule="evenodd" clip-rule="evenodd" d="M13.503 31.8489C13.5116 31.8353 13.529 31.8303 13.5435 31.8372L17.486 33.7017L17.4617 32.5758C17.4615 32.5669 17.465 32.5583 17.4715 32.5521L17.7626 32.273C17.7686 32.2673 17.7765 32.2642 17.7847 32.2642H22.5587C22.5665 32.2642 22.5739 32.267 22.5798 32.2721L22.8964 32.5512C22.9036 32.5575 22.9075 32.5666 22.9072 32.5761L22.8707 33.7014L26.8126 31.8372C26.8271 31.8303 26.8445 31.8353 26.8531 31.8489C26.8617 31.8626 26.8588 31.8804 26.8464 31.8906L25.4536 33.0298C25.4534 33.03 25.4531 33.0302 25.4529 33.0304C25.4525 33.0307 25.452 33.031 25.4516 33.0314L22.6151 34.9944C22.6097 34.998 22.6034 35 22.5969 35H17.7464C17.7399 35 17.7336 34.998 17.7283 34.9943L14.9045 33.0313C14.9038 33.0308 14.9031 33.0303 14.9025 33.0298L13.5097 31.8906C13.4973 31.8804 13.4944 31.8626 13.503 31.8489ZM26.6048 32.0059L22.8507 33.7813C22.8407 33.7861 22.8289 33.7852 22.8197 33.7791C22.8104 33.7731 22.8049 33.7626 22.8053 33.7515L22.843 32.5891L22.5467 32.3279H17.7975L17.5257 32.5884L17.5508 33.7518C17.5511 33.7629 17.5456 33.7732 17.5363 33.7792C17.5271 33.7852 17.5153 33.786 17.5054 33.7813L13.7513 32.0059L14.9419 32.9797L17.7564 34.9363H22.587L25.4143 32.9797L26.6048 32.0059Z" fill="#C0AD9E"/>
<path d="M22.5329 29.7761L21.9251 29.3582H18.4176L17.8098 29.7761L17.4932 32.575L17.7843 32.296H22.5584L22.875 32.575L22.5329 29.7761Z" fill="#161616"/>
<path fill-rule="evenodd" clip-rule="evenodd" d="M18.3992 29.3319C18.4045 29.3282 18.4108 29.3263 18.4173 29.3263H21.9247C21.9311 29.3263 21.9374 29.3282 21.9427 29.3319L22.5506 29.7499C22.5581 29.755 22.563 29.7632 22.5641 29.7722L22.9063 32.5712C22.9079 32.5843 22.9012 32.597 22.8895 32.6032C22.8778 32.6094 22.8635 32.6077 22.8536 32.5989L22.546 32.3278H17.7968L17.5148 32.598C17.5052 32.6073 17.4907 32.6095 17.4787 32.6036C17.4666 32.5976 17.4596 32.5848 17.4611 32.5714L17.7778 29.7725C17.7788 29.7634 17.7838 29.7551 17.7914 29.7499L18.3992 29.3319ZM18.4272 29.39L17.8395 29.7941L17.5344 32.4911L17.7619 32.273C17.7679 32.2673 17.7758 32.2641 17.784 32.2641H22.558C22.5657 32.2641 22.5732 32.2669 22.5791 32.2721L22.8329 32.4957L22.5026 29.7942L21.9148 29.39H18.4272Z" fill="#161616"/>
<path d="M35.2478 14.9979L36.3239 9.83138L34.7158 5.03186L22.5332 14.0734L27.2187 18.037L33.8417 19.9745L35.3109 18.2651L34.6776 17.8095L35.6906 16.8851L34.9057 16.2772L35.9187 15.5044L35.2478 14.9979Z" fill="#763D16"/>
<path fill-rule="evenodd" clip-rule="evenodd" d="M34.725 5.00147C34.7347 5.00453 34.7424 5.01206 34.7456 5.02174L36.3538 9.82125C36.3556 9.82661 36.3559 9.83234 36.3547 9.83787L35.2827 14.9846L35.9375 15.479C35.9455 15.485 35.9502 15.4944 35.9502 15.5043C35.9502 15.5143 35.9456 15.5237 35.9377 15.5297L34.9576 16.2774L35.7098 16.8599C35.7172 16.8656 35.7217 16.8744 35.7221 16.8838C35.7225 16.8932 35.7187 16.9023 35.7117 16.9086L34.7277 17.8066L35.3291 18.2392C35.3364 18.2444 35.3411 18.2525 35.3421 18.2613C35.3432 18.2702 35.3405 18.2791 35.3347 18.2859L33.8654 19.9953C33.8573 20.0048 33.8443 20.0086 33.8323 20.0051L27.2094 18.0676C27.2051 18.0663 27.2011 18.0642 27.1977 18.0613L22.5123 14.0977C22.5048 14.0914 22.5007 14.0821 22.501 14.0724C22.5013 14.0627 22.506 14.0536 22.5138 14.0478L34.6964 5.00628C34.7046 5.0002 34.7153 4.99841 34.725 5.00147ZM22.5841 14.075L27.2337 18.0083L33.8305 19.9382L35.2637 18.2707L34.6586 17.8354C34.6508 17.8298 34.646 17.821 34.6454 17.8114C34.6448 17.8018 34.6486 17.7925 34.6557 17.786L35.6408 16.8871L34.8858 16.3024C34.878 16.2964 34.8734 16.287 34.8734 16.2771C34.8735 16.2672 34.8781 16.2579 34.886 16.2519L35.8656 15.5045L35.2282 15.0233C35.2184 15.0159 35.2137 15.0034 35.2163 14.9914L36.2906 9.83332L34.6992 5.0836L22.5841 14.075Z" fill="#763D16"/>
<path d="M4.03223 9.83138L5.10834 14.9979L4.4247 15.5044L5.43774 16.2772L4.66554 16.8851L5.67858 17.8095L5.04527 18.2651L6.50175 19.9745L13.1247 18.037L17.8102 14.0734L5.62761 5.03186L4.03223 9.83138Z" fill="#763D16"/>
<path fill-rule="evenodd" clip-rule="evenodd" d="M5.61765 5.00148C5.62739 4.9984 5.63802 5.00019 5.64622 5.00628L17.8288 14.0478C17.8366 14.0536 17.8414 14.0627 17.8417 14.0724C17.842 14.0821 17.8378 14.0914 17.8304 14.0977L13.1449 18.0613C13.1415 18.0642 13.1376 18.0663 13.1333 18.0676L6.51032 20.0051C6.49827 20.0086 6.48528 20.0047 6.47713 19.9952L5.02065 18.2858C5.01487 18.279 5.0122 18.2701 5.01327 18.2613C5.01434 18.2524 5.01907 18.2444 5.02629 18.2392L5.62773 17.8066L4.64369 16.9086C4.63678 16.9023 4.63299 16.8933 4.63333 16.8839C4.63367 16.8745 4.63811 16.8658 4.64546 16.86L5.38536 16.2776L4.40501 15.5297C4.39705 15.5237 4.3924 15.5142 4.39247 15.5042C4.39254 15.4942 4.39732 15.4848 4.40537 15.4788L5.07263 14.9844L4.00067 9.83787C3.99952 9.83237 3.99985 9.82666 4.00163 9.82132L5.59701 5.02181C5.60023 5.01211 5.6079 5.00455 5.61765 5.00148ZM5.64359 5.08366L4.06479 9.83328L5.13916 14.9914C5.14169 15.0035 5.13692 15.0161 5.12694 15.0235L4.47734 15.5048L5.45669 16.2519C5.46452 16.2579 5.46915 16.2671 5.46923 16.277C5.4693 16.2868 5.46481 16.2962 5.45707 16.3023L4.71439 16.8869L5.69968 17.786C5.70677 17.7925 5.71057 17.8018 5.71001 17.8114C5.70945 17.821 5.7046 17.8298 5.69681 17.8354L5.09158 18.2708L6.51224 19.9381L13.1089 18.0083L17.7586 14.075L5.64359 5.08366Z" fill="#763D16"/>
<path d="M33.841 19.9745L27.218 18.037L29.232 21.064L26.2305 26.8887L30.1813 26.8383H36.0703L33.841 19.9745Z" fill="#F6851B"/>
<path fill-rule="evenodd" clip-rule="evenodd" d="M27.193 18.0181C27.2009 18.0073 27.2147 18.0027 27.2276 18.0064L33.8506 19.9439C33.8607 19.9469 33.8687 19.9546 33.8719 19.9647L36.1012 26.8285C36.1044 26.8382 36.1027 26.8488 36.0967 26.8571C36.0907 26.8653 36.0811 26.8702 36.0709 26.8702H30.1819L26.2315 26.9205C26.2203 26.9207 26.2099 26.9149 26.204 26.9054C26.1981 26.8959 26.1976 26.884 26.2028 26.8741L29.1957 21.0661L27.1921 18.0546C27.1847 18.0435 27.185 18.0289 27.193 18.0181ZM27.2936 18.0921L29.2591 21.0464C29.2655 21.056 29.2662 21.0683 29.2609 21.0786L26.2837 26.8561L30.1815 26.8065L30.1819 26.8065L36.0271 26.8065L33.8165 20.0004L27.2936 18.0921Z" fill="#F6851B"/>
<path d="M13.1247 18.037L6.50169 19.9745L4.29785 26.8383H10.1741L14.1122 26.8887L11.1234 21.064L13.1247 18.037Z" fill="#F6851B"/>
<path fill-rule="evenodd" clip-rule="evenodd" d="M13.1499 18.0181C13.1579 18.0288 13.1583 18.0434 13.1509 18.0546L11.1599 21.066L14.1402 26.8741C14.1453 26.8841 14.1448 26.8959 14.1389 26.9054C14.1331 26.9149 14.1226 26.9207 14.1115 26.9205L10.1738 26.8702H4.29748C4.2873 26.8702 4.27774 26.8653 4.27174 26.8571C4.26575 26.8489 4.26404 26.8383 4.26715 26.8286L6.47099 19.9648C6.47422 19.9547 6.48223 19.9469 6.49238 19.9439L13.1154 18.0064C13.1282 18.0027 13.142 18.0073 13.1499 18.0181ZM6.52649 20.0003L4.34117 26.8065H10.1742L14.0594 26.8561L11.0947 21.0785C11.0895 21.0683 11.0902 21.056 11.0965 21.0464L13.0498 18.092L6.52649 20.0003Z" fill="#F6851B"/>
<path d="M22.1152 21.3807L22.5331 14.0734L24.4586 8.86865H15.9102L17.8101 14.0734L18.2529 21.3807L18.4052 23.6852L18.4179 29.3582H21.9253L21.9508 23.6852L22.1152 21.3807Z" fill="#F6851B"/>
<path fill-rule="evenodd" clip-rule="evenodd" d="M15.8837 8.85039C15.8896 8.84187 15.8994 8.83679 15.9098 8.83679H24.4582C24.4686 8.83679 24.4784 8.84189 24.4843 8.85045C24.4903 8.859 24.4917 8.86993 24.4881 8.8797L22.5643 14.08L22.1466 21.3825L22.1466 21.3829L21.9823 23.6864L21.9568 29.3583C21.9567 29.3759 21.9425 29.39 21.925 29.39H18.4175C18.4 29.39 18.3857 29.3758 18.3857 29.3583L18.3729 23.6862L18.2207 21.3827L18.2207 21.3826L17.7782 14.0799L15.8799 8.87957C15.8763 8.8698 15.8777 8.85891 15.8837 8.85039ZM15.9553 8.90051L17.8396 14.0625C17.8407 14.0653 17.8413 14.0684 17.8415 14.0715L18.2843 21.3785L18.2843 21.3787L18.4366 23.6831C18.4366 23.6837 18.4367 23.6844 18.4367 23.6851L18.4493 29.3263H21.8932L21.9186 23.685C21.9186 23.6843 21.9186 23.6836 21.9187 23.6829L22.083 21.3788L22.083 21.3784L22.501 14.0716C22.5012 14.0684 22.5018 14.0653 22.5029 14.0623L24.4124 8.90051H15.9553Z" fill="#F6851B"/>
</g>
</g>
</g>
<defs>
<filter id="filter0_d_2028_1145" x="0" y="0" width="42" height="42" filterUnits="userSpaceOnUse" color-interpolation-filters="sRGB">
<feFlood flood-opacity="0" result="BackgroundImageFix"/>
<feColorMatrix in="SourceAlpha" type="matrix" values="0 0 0 0 0 0 0 0 0 0 0 0 0 0 0 0 0 0 127 0" result="hardAlpha"/>
<feOffset dx="2" dy="2"/>
<feComposite in2="hardAlpha" operator="out"/>
<feColorMatrix type="matrix" values="0 0 0 0 0.247059 0 0 0 0 0.0784314 0 0 0 0 0.643137 0 0 0 1 0"/>
<feBlend mode="normal" in2="BackgroundImageFix" result="effect1_dropShadow_2028_1145"/>
<feBlend mode="normal" in="SourceGraphic" in2="effect1_dropShadow_2028_1145" result="shape"/>
</filter>
<clipPath id="clip0_2028_1145">
<rect x="4" y="4" width="32" height="32" rx="4" fill="white"/>
</clipPath>
<clipPath id="clip1_2028_1145">
<rect width="32.3555" height="30" fill="white" transform="translate(4 5)"/>
</clipPath>
</defs>
</svg>
