<svg width="100%" viewBox="0 0 32 32" fill="none" xmlns="http://www.w3.org/2000/svg">
<path d="M2.86329 15.7464C9.85978 12.6982 14.5253 10.6886 16.8595 9.71762C23.5246 6.94539 24.9095 6.46383 25.8122 6.44792C26.0107 6.44443 26.4547 6.49363 26.7422 6.72696C26.985 6.92398 27.0518 7.19012 27.0838 7.37691C27.1158 7.56371 27.1555 7.98923 27.1239 8.32171C26.7627 12.1167 25.1999 21.3261 24.4049 25.5765C24.0685 27.375 23.4061 27.978 22.7647 28.037C21.371 28.1653 20.3126 27.116 18.9627 26.2312C16.8505 24.8465 15.6571 23.9845 13.6067 22.6333C11.2372 21.0718 12.7733 20.2136 14.1237 18.811C14.4771 18.444 20.6179 12.8585 20.7367 12.3518C20.7515 12.2884 20.7654 12.0522 20.625 11.9275C20.4847 11.8027 20.2777 11.8454 20.1282 11.8793C19.9163 11.9274 16.5418 14.1577 10.0048 18.5705C9.04696 19.2281 8.1794 19.5486 7.40209 19.5318C6.54516 19.5133 4.89678 19.0473 3.67138 18.649C2.16838 18.1604 0.973828 17.9021 1.07785 17.0724C1.13203 16.6402 1.72717 16.1982 2.86329 15.7464Z" fill="#3F14A4"/>
</svg>
