<svg width="100%" viewBox="0 0 24 24" fill="none" xmlns="http://www.w3.org/2000/svg">
<g clip-path="url(#clip0_2134_565)">
<circle cx="12" cy="12" r="12" fill="#FF0607"/>
<path d="M19.0041 9.36427C18.2939 8.70851 17.3115 7.70712 16.5113 6.99691L16.464 6.96377C16.3852 6.90051 16.2964 6.8509 16.2012 6.81699C14.2718 6.45716 5.2924 4.7787 5.11721 4.80001C5.06813 4.80688 5.02121 4.82468 4.97991 4.85209L4.93493 4.8876C4.87954 4.94385 4.83748 5.0118 4.81182 5.08646L4.79999 5.11723V5.28531V5.31135C5.81085 8.12614 9.80221 17.347 10.5882 19.5108C10.6355 19.6575 10.7255 19.9369 10.8936 19.9511H10.9314C11.0214 19.9511 11.4049 19.4445 11.4049 19.4445C11.4049 19.4445 18.2608 11.1303 18.9544 10.2449C19.0442 10.1359 19.1235 10.0186 19.1912 9.89456C19.2084 9.79754 19.2003 9.69771 19.1675 9.60477C19.1347 9.51184 19.0784 9.42898 19.0041 9.36427ZM13.1639 10.3325L16.0899 7.90598L17.8062 9.48737L13.1639 10.3325ZM12.0275 10.1739L6.98979 6.04524L15.1406 7.54851L12.0275 10.1739ZM12.4821 11.2558L17.6382 10.4248L11.7434 17.5269L12.4821 11.2558ZM6.30563 6.45716L11.6061 10.9551L10.8391 17.5317L6.30563 6.45716Z" fill="white"/>
</g>
<defs>
<clipPath id="clip0_2134_565">
<rect width="24" height="24" fill="white"/>
</clipPath>
</defs>
</svg>
