<svg width="100%" viewBox="0 0 41 40" fill="none" xmlns="http://www.w3.org/2000/svg">
<g clip-path="url(#clip0_2028_524)">
<path d="M20.5 40C31.5834 40 40.5 31.0834 40.5 20C40.5 8.9166 31.5834 0 20.5 0C9.4166 0 0.5 8.9166 0.5 20C0.5 31.0834 9.4166 40 20.5 40Z" fill="#2775CA"/>
<path d="M26.0001 23.1666C26.0001 20.25 24.2501 19.25 20.7501 18.8334C18.2501 18.5 17.7501 17.8334 17.7501 16.6666C17.7501 15.4998 18.5835 14.75 20.2501 14.75C21.7501 14.75 22.5835 15.25 23.0001 16.5C23.0835 16.75 23.3335 16.9166 23.5835 16.9166H24.9167C25.2501 16.9166 25.5001 16.6666 25.5001 16.3334V16.25C25.1667 14.4166 23.6667 13 21.7501 12.8334V10.8334C21.7501 10.5 21.5001 10.25 21.0835 10.1666H19.8335C19.5001 10.1666 19.2501 10.4166 19.1667 10.8334V12.75C16.6667 13.0834 15.0835 14.75 15.0835 16.8334C15.0835 19.5834 16.7501 20.6666 20.2501 21.0834C22.5835 21.5 23.3335 22 23.3335 23.3334C23.3335 24.6668 22.1667 25.5834 20.5835 25.5834C18.4167 25.5834 17.6667 24.6666 17.4167 23.4166C17.3335 23.0834 17.0835 22.9166 16.8335 22.9166H15.4167C15.0835 22.9166 14.8335 23.1666 14.8335 23.5V23.5834C15.1667 25.6666 16.5001 27.1666 19.2501 27.5834V29.5834C19.2501 29.9166 19.5001 30.1666 19.9167 30.25H21.1667C21.5001 30.25 21.7501 30 21.8335 29.5834V27.5834C24.3335 27.1666 26.0001 25.4166 26.0001 23.1666Z" fill="white"/>
<path d="M16.2502 31.9166C9.75016 29.5834 6.41676 22.3334 8.83356 15.9166C10.0836 12.4166 12.8336 9.74997 16.2502 8.49997C16.5836 8.33337 16.7502 8.08337 16.7502 7.66657V6.49997C16.7502 6.16657 16.5836 5.91657 16.2502 5.83337C16.1668 5.83337 16.0002 5.83337 15.9168 5.91657C8.00016 8.41657 3.66676 16.8334 6.16676 24.75C7.66676 29.4166 11.2502 33 15.9168 34.5C16.2502 34.6666 16.5836 34.5 16.6668 34.1666C16.7502 34.0834 16.7502 34 16.7502 33.8334V32.6666C16.7502 32.4166 16.5002 32.0834 16.2502 31.9166ZM25.0836 5.91657C24.7502 5.74997 24.4168 5.91657 24.3336 6.24997C24.2502 6.33337 24.2502 6.41657 24.2502 6.58337V7.74997C24.2502 8.08337 24.5002 8.41657 24.7502 8.58337C31.2502 10.9166 34.5836 18.1666 32.1668 24.5834C30.9168 28.0834 28.1668 30.75 24.7502 32C24.4168 32.1666 24.2502 32.4166 24.2502 32.8334V34C24.2502 34.3334 24.4168 34.5834 24.7502 34.6666C24.8336 34.6666 25.0002 34.6666 25.0836 34.5834C33.0002 32.0834 37.3336 23.6666 34.8336 15.75C33.3336 11 29.6668 7.41657 25.0836 5.91657Z" fill="white"/>
</g>
<defs>
<clipPath id="clip0_2028_524">
<rect width="40" height="40" fill="white" transform="translate(0.5)"/>
</clipPath>
</defs>
</svg>
