<svg width="100%" viewBox="0 0 40 40" fill="none" xmlns="http://www.w3.org/2000/svg">
<g clip-path="url(#clip0_2136_5)">
<path fill-rule="evenodd" clip-rule="evenodd" d="M7.95771 4.16208L1.02897 18.6912C1.00261 18.7452 0.994253 18.8062 1.00513 18.8654C1.01601 18.9245 1.04555 18.9786 1.08943 19.0197L19.8023 36.9207C19.8554 36.9716 19.9262 37 19.9999 37C20.0735 37 20.1443 36.9716 20.1975 36.9207L38.9103 19.0209C38.9542 18.9797 38.9837 18.9256 38.9946 18.8665C39.0055 18.8074 38.9971 18.7463 38.9708 18.6923L32.042 4.16319C32.0197 4.1144 31.9837 4.07306 31.9384 4.04413C31.8932 4.01519 31.8405 3.99988 31.7868 4.00002H8.2152C8.16119 3.99935 8.10814 4.01429 8.06246 4.04305C8.01677 4.0718 7.98039 4.11314 7.95771 4.16208Z" fill="#50AF95"/>
<path fill-rule="evenodd" clip-rule="evenodd" d="M22.4042 20.1831C22.2698 20.1931 21.5757 20.2345 20.0274 20.2345C18.7959 20.2345 17.9216 20.1976 17.6148 20.1831C12.8557 19.9741 9.30349 19.147 9.30349 18.1568C9.30349 17.1666 12.8557 16.3407 17.6148 16.1283V19.3594C17.9261 19.3817 18.8172 19.4343 20.0487 19.4343C21.5264 19.4343 22.2665 19.3728 22.3997 19.3605V16.1306C27.1487 16.3418 30.6931 17.1688 30.6931 18.1568C30.6931 19.1448 27.1498 19.9718 22.3997 20.1819L22.4042 20.1831ZM22.4042 15.7964V12.9051H29.0317V8.49609H10.9873V12.9051H17.6137V15.7953C12.2277 16.0423 8.17725 17.1074 8.17725 18.3837C8.17725 19.66 12.2277 20.724 17.6137 20.9721V30.2372H22.403V20.9687C27.7768 20.7218 31.8205 19.6578 31.8205 18.3826C31.8205 17.1074 27.7801 16.0434 22.403 15.7953L22.4042 15.7964Z" fill="white"/>
</g>
<defs>
<clipPath id="clip0_2136_5">
<rect width="38" height="33" fill="white" transform="translate(1 4)"/>
</clipPath>
</defs>
</svg>
